<?xml version="1.0" encoding="UTF-8" standalone="no"?>
<!-- Created with Inkscape (http://www.inkscape.org/) -->

<svg
   width="72.992477mm"
   height="40.751106mm"
   viewBox="0 0 72.992477 40.751106"
   version="1.1"
   id="svg3079"
   xml:space="preserve"
   inkscape:export-filename="bitmap.svg"
   inkscape:export-xdpi="96"
   inkscape:export-ydpi="96"
   xmlns:inkscape="http://www.inkscape.org/namespaces/inkscape"
   xmlns:sodipodi="http://sodipodi.sourceforge.net/DTD/sodipodi-0.dtd"
   xmlns="http://www.w3.org/2000/svg"
   xmlns:svg="http://www.w3.org/2000/svg"><sodipodi:namedview
     id="namedview3081"
     pagecolor="#ffffff"
     bordercolor="#000000"
     borderopacity="0.25"
     inkscape:showpageshadow="2"
     inkscape:pageopacity="0.0"
     inkscape:pagecheckerboard="0"
     inkscape:deskcolor="#d1d1d1"
     inkscape:document-units="mm"
     showgrid="false" /><defs
     id="defs3076" /><g
     inkscape:label="Capa 1"
     inkscape:groupmode="layer"
     id="layer1"
     transform="translate(-65.635759,-123.17875)"><g
       id="g3212"
       transform="translate(212.55599,27.762415)"><path
         style="fill:#aab6c4;stroke-width:0.264583"
         d="m -140.96607,131.93936 c 1.01084,-1.01865 1.89742,-1.85209 1.97018,-1.85209 0.0728,0 -0.69476,0.83344 -1.7056,1.85209 -1.01084,1.01864 -1.89742,1.85208 -1.97018,1.85208 -0.0728,0 0.69475,-0.83344 1.7056,-1.85208 z m 42.781687,-0.99104 c 1.556282,-0.0467 4.175657,-0.0469 5.820834,-2.6e-4 1.645174,0.0465 0.371851,0.0847 -2.829608,0.0849 -3.201458,2e-4 -4.54751,-0.0378 -2.991226,-0.0845 z m -6.549277,-7.60792 c 1.2e-4,-4.22011 0.0366,-5.90946 0.0812,-3.75413 0.0445,2.15534 0.0444,5.60815 -2.3e-4,7.67292 -0.0447,2.06477 -0.0811,0.30131 -0.081,-3.91879 z m -34.13249,-0.39688 c 0,-3.8563 0.037,-5.43388 0.0822,-3.50573 0.0452,1.92816 0.0452,5.08331 0,7.01146 -0.0452,1.92815 -0.0822,0.35058 -0.0822,-3.50573 z m -6.12273,-7.07605 c 1.13444,-0.0497 2.92038,-0.0494 3.96875,6.8e-4 1.04838,0.0501 0.1202,0.0908 -2.06261,0.0904 -2.18281,-3.7e-4 -3.04058,-0.0413 -1.90614,-0.0911 z m 0,-1.85208 c 1.13444,-0.0497 2.92038,-0.0494 3.96875,6.7e-4 1.04838,0.0501 0.1202,0.0908 -2.06261,0.0904 -2.18281,-3.8e-4 -3.04058,-0.0414 -1.90614,-0.0911 z m 62.429578,-0.52972 c 1.564349,-0.0468 4.124193,-0.0468 5.688542,0 1.564349,0.0468 0.284427,0.085 -2.844271,0.085 -3.128698,0 -4.40862,-0.0383 -2.844271,-0.085 z m -60.395318,-1.58468 3.96518,-0.0837 0.0758,-7.86448 0.0758,-7.864485 -0.006,7.937505 -0.006,7.9375 -4.03519,0.0107 -4.0352,0.0107 z m 20.4902,-5.62622 c 0,-3.27422 0.038,-4.61367 0.0844,-2.97656 0.0464,1.63711 0.0464,4.31602 0,5.95313 -0.0464,1.63711 -0.0844,0.29765 -0.0844,-2.97657 z m 6.63376,0.79375 c 2.76203,-2.76489 5.08139,-5.02708 5.15415,-5.02708 0.0728,0 -2.12754,2.26219 -4.88956,5.02708 -2.76203,2.7649 -5.0814,5.02709 -5.15416,5.02709 -0.0728,0 2.12755,-2.26219 4.88957,-5.02709 z m 11.09549,-1.71979 c 1.5e-4,-3.78354 0.0373,-5.29456 0.0826,-3.35782 0.0453,1.93674 0.0451,5.03237 -2.7e-4,6.87917 -0.0454,1.8468 -0.0825,0.26219 -0.0823,-3.52135 z m -21.69127,3.24115 -1.04588,-1.12448 1.12447,1.04588 c 1.04576,0.97266 1.24607,1.20308 1.04589,1.20308 -0.0432,0 -0.54924,-0.50602 -1.12448,-1.12448 z m 11.52182,-0.33073 c 0.79043,-0.80037 1.49667,-1.45521 1.56943,-1.45521 0.0728,0 -0.51442,0.65484 -1.30484,1.45521 -0.79042,0.80036 -1.49667,1.45521 -1.56943,1.45521 -0.0728,0 0.51442,-0.65485 1.30484,-1.45521 z m 32.066071,-12.764997 c 1.556282,-0.04669 4.175657,-0.04686 5.820834,-3.63e-4 1.645174,0.0465 0.37185,0.0847 -2.829608,0.0849 -3.201458,2e-4 -4.54751,-0.03784 -2.991226,-0.08454 z"
         id="path3226" /><path
         style="fill:#969aa7;stroke-width:0.264583"
         d="m -142.68587,136.0899 c 0,-0.0455 0.38696,-0.43249 0.8599,-0.8599 l 0.8599,-0.7771 -0.77711,0.85989 c -0.72437,0.80155 -0.94269,0.98152 -0.94269,0.77711 z m -0.66145,-1.76929 c 0.26338,-0.29105 0.53842,-0.52917 0.61118,-0.52917 0.0728,0 -0.0832,0.23812 -0.3466,0.52917 -0.26339,0.29104 -0.53842,0.52916 -0.61118,0.52916 -0.0728,0 0.0832,-0.23812 0.3466,-0.52916 z m 10.90982,-3.37051 4.8244,-0.0807 0.0769,-7.13804 0.0769,-7.13803 -0.006,7.21 -0.007,7.21 -4.8948,0.009 -4.89479,0.009 4.82441,-0.0807 z m 19.18653,-0.002 c 1.56435,-0.0468 4.12419,-0.0468 5.68854,0 1.56435,0.0468 0.28443,0.085 -2.84427,0.085 -3.1287,0 -4.40862,-0.0383 -2.84427,-0.085 z m 33.33339,0.002 5.750576,-0.0794 0.07644,-7.33704 0.07644,-7.33704 -0.0062,7.40834 -0.0062,7.40833 -5.820833,0.008 -5.820834,0.008 5.750576,-0.0794 z m 5.876443,-27.18887 c -1.11e-4,-4.511144 0.03597,-6.393809 0.08017,-4.183698 0.0442,2.210108 0.0443,5.901048 2.03e-4,8.202088 -0.04409,2.30103 -0.08026,0.49276 -0.08038,-4.01839 z m -33.455143,-5.027081 c 1.3767,-1.382448 2.56262,-2.513542 2.63538,-2.513542 0.0728,0 -0.9941,1.131094 -2.3708,2.513542 -1.3767,1.382451 -2.56262,2.513541 -2.63538,2.513541 -0.0728,0 0.9941,-1.13109 2.3708,-2.513541 z m -11.24479,-0.661459 c 1.30362,-1.309687 2.42974,-2.38125 2.5025,-2.38125 0.0728,0 -0.9343,1.071563 -2.23792,2.38125 -1.30362,1.309688 -2.42975,2.38125 -2.50251,2.38125 -0.0728,0 0.93431,-1.071562 2.23793,-2.38125 z m -7.95415,-1.653646 -0.7771,-0.859895 0.85989,0.777105 c 0.47294,0.427408 0.8599,0.814361 0.8599,0.859896 0,0.204406 -0.21832,0.02444 -0.94269,-0.777106 z m -12.05657,-0.799262 c 0.11245,-0.112172 2.69633,-0.171489 5.74196,-0.131816 l 5.53751,0.07213 -5.74196,0.131816 c -3.15807,0.0725 -5.64995,0.04004 -5.53751,-0.07213 z m 25.50082,-0.125777 c 1.56435,-0.04678 4.12419,-0.04678 5.68854,0 1.56435,0.04678 0.28443,0.08505 -2.84427,0.08505 -3.1287,0 -4.40862,-0.03827 -2.84427,-0.08505 z"
         id="path3224" /><path
         style="fill:#6698c0;stroke-width:0.264583"
         d="m -100.81967,123.40654 0.0703,-7.47447 5.622399,-0.0714 5.622396,-0.0714 v 7.54589 7.54588 h -5.692661 -5.692664 z m 0.0703,-9.45885 c -0.10708,-0.17326 1.805242,-0.26458 5.540638,-0.26458 3.626381,0 5.704157,0.0964 5.704157,0.26458 0,0.16797 -2.023266,0.26458 -5.540634,0.26458 -3.408355,0 -5.603571,-0.10182 -5.704161,-0.26458 z"
         id="path3222" /><path
         style="fill:#dfad14;stroke-width:0.264583"
         d="m -100.76174,111.76199 c -0.0704,-0.1835 -0.0964,-3.9042 -0.0579,-8.26823 l 0.0702,-7.934611 5.622399,-0.07141 5.622396,-0.07141 v 8.339641 8.33964 h -5.564553 c -4.233291,0 -5.595182,-0.0798 -5.692572,-0.33362 z"
         id="path3220" /><path
         style="fill:#747a8d;stroke-width:0.264583"
         d="m -139.37857,132.73311 c 1.01084,-1.01865 1.89742,-1.85209 1.97018,-1.85209 0.0728,0 -0.69476,0.83344 -1.7056,1.85209 -1.01084,1.01864 -1.89742,1.85208 -1.97018,1.85208 -0.0728,0 0.69475,-0.83344 1.7056,-1.85208 z m 23.26759,-9.26042 c 0,-4.14734 0.0366,-5.84398 0.0813,-3.77031 0.0447,2.07367 0.0447,5.46695 0,7.54062 -0.0447,2.07367 -0.0813,0.37703 -0.0813,-3.77031 z m -11.38537,-11.24479 c -3.2e-4,-2.47386 0.0395,-3.5215 0.0884,-2.3281 0.0489,1.19341 0.0492,3.21747 5.6e-4,4.49792 -0.0486,1.28045 -0.0886,0.30403 -0.0889,-2.16982 z m 44.657801,-0.32958 c 1.556282,-0.0467 4.175657,-0.0469 5.820834,-3.7e-4 1.645174,0.0465 0.37185,0.0847 -2.829608,0.0849 -3.201458,2e-4 -4.54751,-0.0378 -2.991226,-0.0845 z m -38.038731,-5.75584 c 2e-4,-3.20146 0.0384,-4.47478 0.0849,-2.8296 0.0465,1.64517 0.0463,4.26454 -3.7e-4,5.82083 -0.0467,1.55628 -0.0847,0.21023 -0.0845,-2.99123 z m 4.72181,4.63021 c 0,-0.65484 0.0516,-0.92273 0.11466,-0.59531 0.0631,0.32742 0.0631,0.8632 0,1.19062 -0.0631,0.32742 -0.11466,0.0595 -0.11466,-0.59531 z m -8.41638,-12.236979 -1.31297,-1.389062 1.38906,1.31297 c 1.29074,1.220036 1.5104,1.465155 1.31297,1.465155 -0.0418,0 -0.66693,-0.625079 -1.38906,-1.389063 z"
         id="path3218" /><path
         style="fill:#4d556e;stroke-width:0.264583"
         d="m -143.37246,135.31279 -0.50403,-0.59531 0.59531,0.50403 c 0.55945,0.47366 0.71576,0.6866 0.50403,0.6866 -0.0502,0 -0.3181,-0.26789 -0.59531,-0.59532 z m 57.962706,-11.97239 0.0062,-7.40833 5.622566,-0.008 5.622565,-0.008 -5.552308,0.0795 -5.552308,0.0795 -0.07644,7.33693 -0.07644,7.33694 0.0062,-7.40833 z m -27.841216,-7.47348 c 1.56435,-0.0468 4.12419,-0.0468 5.68854,0 1.56435,0.0468 0.28443,0.0851 -2.84427,0.0851 -3.1287,0 -4.40862,-0.0383 -2.84427,-0.0851 z m 0,-1.85208 c 1.56435,-0.0468 4.12419,-0.0468 5.68854,0 1.56435,0.0468 0.28443,0.085 -2.84427,0.085 -3.1287,0 -4.40862,-0.0383 -2.84427,-0.085 z m 27.88768,-0.001 c -0.06778,-0.10914 1.562303,-0.1676 3.622408,-0.1299 7.009307,0.12827 7.725394,0.22174 2.107612,0.27509 -3.083729,0.0293 -5.662239,-0.0361 -5.73002,-0.14519 z m -59.49283,-0.52778 c 1.20746,-0.0491 3.11246,-0.0489 4.23334,6.1e-4 1.12087,0.0495 0.13296,0.0897 -2.19538,0.0893 -2.32833,-3.4e-4 -3.24541,-0.0408 -2.03796,-0.09 z m 20.16192,-3.37483 c -1.08412,-1.0914 -1.9116,-1.98437 -1.83884,-1.98437 0.0728,0 1.0193,0.89297 2.10342,1.98437 1.08413,1.09141 1.9116,1.98438 1.83884,1.98438 -0.0728,0 -1.0193,-0.89297 -2.10342,-1.98438 z m 11.44323,1.78694 c 1.56435,-0.0468 4.12419,-0.0468 5.68854,0 1.56435,0.0468 0.28443,0.0851 -2.84427,0.0851 -3.1287,0 -4.40862,-0.0383 -2.84427,-0.0851 z m -6.15156,-1.52235 c 0.79042,-0.80037 1.49666,-1.45521 1.56942,-1.45521 0.0728,0 -0.51442,0.65484 -1.30484,1.45521 -0.79042,0.80036 -1.49666,1.4552 -1.56942,1.4552 -0.0728,0 0.51442,-0.65484 1.30484,-1.4552 z m 33.98431,-6.61459 c -1.12e-4,-4.511144 0.03596,-6.393809 0.08017,-4.183698 0.0442,2.210108 0.0443,5.901048 2.04e-4,8.202088 -0.04409,2.30103 -0.08026,0.49276 -0.08038,-4.01839 z m -25.12077,0.39688 c 3.05334,-3.05594 5.61106,-5.556253 5.68382,-5.556253 0.0728,0 -2.3659,2.500313 -5.41924,5.556253 -3.05334,3.05593 -5.61105,5.55625 -5.68381,5.55625 -0.0728,0 2.36589,-2.50032 5.41923,-5.55625 z"
         id="path3216" /><path
         style="fill:#283251;stroke-width:0.264583"
         d="m -143.08255,135.37915 c -0.49465,-0.54658 -0.48148,-0.56696 1.9337,-2.99222 l 2.43173,-2.44189 v -7.07263 -7.07264 h -4.10104 -4.10104 v -0.79375 -0.79375 h 4.10104 c 3.46898,0 4.10104,-0.0612 4.10104,-0.39687 0,-0.33571 -0.63206,-0.39688 -4.10104,-0.39688 h -4.10104 v -0.66145 -0.66146 h 4.10104 4.10104 v -8.20209 -8.20208 h 5.62763 5.62762 l 2.44759,2.457814 2.4476,2.457816 -0.0716,5.59571 -0.0716,5.59571 -2.29859,-2.23269 c -1.26423,-1.22798 -2.36556,-2.23269 -2.4474,-2.23269 -0.0818,0 -0.14881,5.29828 -0.14881,11.77395 v 11.77396 h -4.9562 -4.9562 l -2.53374,2.52423 -2.53374,2.52424 z m 27.1196,-11.90646 v -7.40833 h 5.55625 5.55625 v 7.40833 7.40833 h -5.55625 -5.55625 z m 30.691669,0 v -7.40833 h 5.55625 5.55625 v 7.40833 7.40833 h -5.55625 -5.55625 z m -27.979689,-9.72244 c 1.56435,-0.0468 4.12419,-0.0468 5.68854,0 1.56435,0.0468 0.28443,0.0851 -2.84427,0.0851 -3.1287,0 -4.40862,-0.0383 -2.84427,-0.0851 z m 30.691668,0 c 1.564349,-0.0468 4.124193,-0.0468 5.688542,0 1.564349,0.0468 0.284427,0.0851 -2.844271,0.0851 -3.128698,0 -4.40862,-0.0383 -2.844271,-0.0851 z m -33.403648,-2.91378 c 0,-0.94186 0.29433,-1.28863 5.55625,-6.54607 l 5.55625,-5.551526 v 6.546076 6.54607 h -5.55625 -5.55625 z m 30.691669,-7.07524 v -8.06979 h 5.55625 5.55625 v 8.06979 8.06979 h -5.55625 -5.55625 z m -35.454169,2.23441 v -5.68502 l 2.32034,-2.309592 2.32034,-2.309588 h 5.61716 c 3.08944,0 5.61716,0.09238 5.61716,0.205278 0,0.18351 -10.49559,10.666692 -14.35474,14.337772 l -1.52026,1.44617 z"
         id="path3214" /></g></g></svg>
